REM DIRINDEX 1\2\5,1\2\6,1\2\7,1\2\8,1\3\9,1\3\10,1\3\11,1\4\12,1\4\13,1\4\14,1\4\15,1\4\16
REM DIRNAME cjc034,folder01,folder02,folder03,folder04,folder05,folder06,folder07,folder08,folder09,folder10,folder11,folder12,folder13,folder14,folder15
TITLE ""
FILE "1200_sec03_0639_0645.mp3" MP3
  TRACK 01 AUDIO
    TITLE "0:"
    INDEX 01 00:00:00
  TRACK 02 AUDIO
    TITLE "12:cjc034_06209"
    INDEX 01 00:00:17
  TRACK 03 AUDIO
    TITLE "0:"
    INDEX 01 00:01:34
  TRACK 04 AUDIO
    TITLE "13:cjc034_06210"
    INDEX 01 00:01:68
  TRACK 05 AUDIO
    TITLE "0:"
    INDEX 01 00:04:17
  TRACK 06 AUDIO
    TITLE "14:cjc034_06211"
    INDEX 01 00:04:50
  TRACK 07 AUDIO
    TITLE "0:"
    INDEX 01 00:05:65
  TRACK 08 AUDIO
    TITLE "15:cjc034_06212"
    INDEX 01 00:06:26
  TRACK 09 AUDIO
    TITLE "0:"
    INDEX 01 00:10:35
  TRACK 10 AUDIO
    TITLE "12:cjc034_06213"
    INDEX 01 00:11:72
  TRACK 11 AUDIO
    TITLE "0:"
    INDEX 01 00:13:02
  TRACK 12 AUDIO
    TITLE "13:cjc034_06214"
    INDEX 01 00:13:35
  TRACK 13 AUDIO
    TITLE "0:"
    INDEX 01 00:14:51
  TRACK 14 AUDIO
    TITLE "14:cjc034_06215"
    INDEX 01 00:15:07
  TRACK 15 AUDIO
    TITLE "0:"
    INDEX 01 00:16:14
  TRACK 16 AUDIO
    TITLE "15:cjc034_06216"
    INDEX 01 00:16:49
  TRACK 17 AUDIO
    TITLE "0:"
    INDEX 01 00:19:18
  TRACK 18 AUDIO
    TITLE "12:cjc034_06217"
    INDEX 01 00:20:51
  TRACK 19 AUDIO
    TITLE "0:"
    INDEX 01 00:21:68
  TRACK 20 AUDIO
    TITLE "13:cjc034_06218"
    INDEX 01 00:22:23
  TRACK 21 AUDIO
    TITLE "0:"
    INDEX 01 00:26:44
  TRACK 22 AUDIO
    TITLE "14:cjc034_06219"
    INDEX 01 00:27:04
  TRACK 23 AUDIO
    TITLE "0:"
    INDEX 01 00:28:21
  TRACK 24 AUDIO
    TITLE "15:cjc034_06220"
    INDEX 01 00:28:59
  TRACK 25 AUDIO
    TITLE "0:"
    INDEX 01 00:32:68
  TRACK 26 AUDIO
    TITLE "12:cjc034_06221"
    INDEX 01 00:34:26
  TRACK 27 AUDIO
    TITLE "0:"
    INDEX 01 00:35:29
  TRACK 28 AUDIO
    TITLE "13:cjc034_06222"
    INDEX 01 00:35:66
  TRACK 29 AUDIO
    TITLE "0:"
    INDEX 01 00:40:42
  TRACK 30 AUDIO
    TITLE "14:cjc034_06223"
    INDEX 01 00:40:73
  TRACK 31 AUDIO
    TITLE "0:"
    INDEX 01 00:42:02
  TRACK 32 AUDIO
    TITLE "15:cjc034_06224"
    INDEX 01 00:42:41
  TRACK 33 AUDIO
    TITLE "0:"
    INDEX 01 00:46:15
  TRACK 34 AUDIO
    TITLE "12:cjc034_06225"
    INDEX 01 00:47:56
  TRACK 35 AUDIO
    TITLE "0:"
    INDEX 01 00:48:65
  TRACK 36 AUDIO
    TITLE "13:cjc034_06226"
    INDEX 01 00:49:23
  TRACK 37 AUDIO
    TITLE "0:"
    INDEX 01 00:51:56
  TRACK 38 AUDIO
    TITLE "14:cjc034_06227"
    INDEX 01 00:52:20
  TRACK 39 AUDIO
    TITLE "0:"
    INDEX 01 00:53:29
  TRACK 40 AUDIO
    TITLE "15:cjc034_06228"
    INDEX 01 00:53:60
  TRACK 41 AUDIO
    TITLE "0:"
    INDEX 01 00:56:71
  TRACK 42 AUDIO
    TITLE "12:cjc034_06229"
    INDEX 01 00:58:30
  TRACK 43 AUDIO
    TITLE "0:"
    INDEX 01 00:59:59
  TRACK 44 AUDIO
    TITLE "13:cjc034_06230"
    INDEX 01 01:00:15
  TRACK 45 AUDIO
    TITLE "0:"
    INDEX 01 01:03:00
  TRACK 46 AUDIO
    TITLE "14:cjc034_06231"
    INDEX 01 01:03:31
  TRACK 47 AUDIO
    TITLE "0:"
    INDEX 01 01:04:56
  TRACK 48 AUDIO
    TITLE "15:cjc034_06232"
    INDEX 01 01:05:17
  TRACK 49 AUDIO
    TITLE "0:"
    INDEX 01 01:09:65
  TRACK 50 AUDIO
    TITLE "16:cjc034_06233"
    INDEX 01 01:11:35
  TRACK 51 AUDIO
    TITLE "0:"
    INDEX 01 01:16:03
  TRACK 52 AUDIO
    TITLE "12:cjc034_06234"
    INDEX 01 01:17:08
  TRACK 53 AUDIO
    TITLE "0:"
    INDEX 01 01:18:33
  TRACK 54 AUDIO
    TITLE "13:cjc034_06235"
    INDEX 01 01:18:66
  TRACK 55 AUDIO
    TITLE "0:"
    INDEX 01 01:20:20
  TRACK 56 AUDIO
    TITLE "14:cjc034_06236"
    INDEX 01 01:20:51
  TRACK 57 AUDIO
    TITLE "0:"
    INDEX 01 01:21:74
  TRACK 58 AUDIO
    TITLE "15:cjc034_06237"
    INDEX 01 01:22:35
  TRACK 59 AUDIO
    TITLE "0:"
    INDEX 01 01:27:08
